<?xml version="1.0" standalone="no"?>
<!DOCTYPE svg PUBLIC "-//W3C//DTD SVG 20010904//EN"
 "http://www.w3.org/TR/2001/REC-SVG-20010904/DTD/svg10.dtd">
<svg version="1.0" xmlns="http://www.w3.org/2000/svg"
 width="99.000000pt" height="80.000000pt" viewBox="0 0 99.000000 80.000000"
 preserveAspectRatio="xMidYMid meet">

<g transform="translate(0.000000,80.000000) scale(0.100000,-0.100000)"
fill="#000000" stroke="none">
<path d="M676 747 c3 -10 9 -15 12 -12 3 3 0 11 -7 18 -10 9 -11 8 -5 -6z"/>
<path d="M570 644 c-6 -14 -19 -28 -30 -31 -11 -3 -20 -10 -20 -15 0 -5 5 -6
11 -2 6 3 15 0 20 -7 7 -11 9 -10 9 4 0 10 4 16 9 13 5 -3 9 6 9 20 0 29 6 39
21 29 17 -10 13 -68 -6 -95 -24 -35 -44 -49 -73 -51 -23 -2 -23 -2 -3 -6 30
-6 60 12 83 50 24 39 27 102 4 111 -23 9 -24 8 -34 -20z"/>
<path d="M430 653 c8 -3 27 -14 42 -24 14 -11 30 -19 34 -19 5 0 -8 11 -28 25
-20 14 -43 25 -50 24 -9 0 -8 -2 2 -6z"/>
<path d="M240 633 c-14 -10 -38 -25 -55 -33 -38 -19 -43 -50 -13 -76 l23 -19
-17 21 c-28 33 -22 51 26 72 24 11 47 25 50 31 4 6 18 11 32 11 17 0 23 -4 18
-12 -4 -7 -3 -8 5 -4 6 4 9 12 6 17 -10 15 -49 10 -75 -8z"/>
<path d="M241 591 c-11 -11 -21 -26 -21 -32 0 -7 9 0 21 15 24 31 53 33 93 7
60 -40 75 -113 31 -156 -13 -14 -28 -25 -33 -25 -4 0 -15 -23 -24 -50 -14 -45
-15 -52 -1 -65 13 -13 13 -15 -2 -15 -9 0 -27 -12 -42 -26 -22 -22 -24 -31
-19 -67 11 -64 28 -77 103 -77 61 0 63 1 63 25 0 24 -3 25 -62 26 l-63 2 58 6
c74 8 97 40 62 87 -21 28 -20 29 35 29 28 0 50 -1 50 -2 0 -1 -11 -13 -25 -27
-27 -27 -31 -58 -14 -103 14 -38 25 -43 97 -43 60 0 62 1 62 25 0 24 -3 25
-62 27 -43 1 -50 2 -23 5 69 6 82 12 89 39 9 36 -17 74 -51 74 l-26 0 22 24
c13 14 21 32 18 43 -4 16 -5 15 -6 -3 -2 -47 -70 -72 -91 -34 -13 25 -6 51 20
75 20 18 27 69 12 79 -4 2 -6 -10 -4 -28 5 -39 -22 -70 -40 -45 -7 11 -9 9 -5
-9 3 -13 2 -36 -3 -53 -5 -18 -5 -27 1 -24 5 4 9 2 9 -4 0 -11 -131 -13 -149
-2 -18 12 -3 80 22 100 51 41 57 51 57 96 0 37 -6 52 -32 80 -43 46 -96 57
-127 26z m139 -381 c0 -5 -18 -10 -39 -10 -22 0 -43 5 -46 10 -4 6 12 10 39
10 25 0 46 -4 46 -10z m200 0 c0 -5 -18 -10 -39 -10 -22 0 -43 5 -46 10 -4 6
12 10 39 10 25 0 46 -4 46 -10z"/>
<path d="M212 520 c0 -14 2 -19 5 -12 2 6 2 18 0 25 -3 6 -5 1 -5 -13z"/>
<path d="M460 459 c-19 -10 -27 -19 -18 -19 8 0 26 9 39 20 30 24 24 24 -21
-1z"/>
<path d="M242 378 c-7 -7 -12 -21 -12 -33 0 -23 26 -65 41 -65 5 0 0 9 -12 21
-30 30 -22 72 16 80 28 6 28 7 5 8 -15 0 -31 -4 -38 -11z"/>
<path d="M892 328 c-21 -21 -14 -57 14 -70 23 -11 29 -10 45 11 23 28 23 35 3
55 -18 19 -45 21 -62 4z m57 -12 c13 -16 -1 -56 -19 -56 -33 0 -55 42 -33 63
11 12 40 8 52 -7z"/>
<path d="M907 313 c-14 -13 -7 -29 13 -29 13 0 20 7 20 18 0 18 -20 24 -33 11z"/>
<path d="M390 310 c0 -5 5 -10 11 -10 5 0 7 5 4 10 -3 6 -8 10 -11 10 -2 0 -4
-4 -4 -10z"/>
<path d="M40 185 c0 -84 0 -85 25 -85 23 0 25 4 25 48 l1 47 42 -48 c27 -30
50 -47 65 -47 22 0 23 2 20 83 -3 76 -5 82 -25 85 -20 3 -22 -2 -25 -48 l-3
-51 -38 50 c-27 37 -44 51 -62 51 -25 0 -25 -1 -25 -85z"/>
<path d="M640 185 c0 -84 0 -85 25 -85 20 0 25 5 25 27 l0 27 28 -27 c25 -25
72 -37 72 -20 0 4 -17 25 -37 46 l-38 38 38 35 c20 19 37 36 37 39 0 16 -48 1
-72 -22 l-28 -27 0 27 c0 22 -5 27 -25 27 -25 0 -25 -1 -25 -85z"/>
<path d="M822 245 c4 -33 22 -33 26 0 2 18 -1 25 -13 25 -12 0 -15 -7 -13 -25z"/>
<path d="M762 50 c0 -14 2 -19 5 -12 2 6 2 18 0 25 -3 6 -5 1 -5 -13z"/>
<path d="M650 47 c0 -8 6 -14 14 -14 8 0 12 6 9 14 -7 17 -23 17 -23 0z"/>
<path d="M711 44 c0 -11 3 -14 6 -6 3 7 2 16 -1 19 -3 4 -6 -2 -5 -13z"/>
<path d="M781 44 c0 -11 3 -14 6 -6 3 7 2 16 -1 19 -3 4 -6 -2 -5 -13z"/>
</g>
</svg>
